<svg width="60" height="60" viewBox="0 0 60 60" fill="none" xmlns="http://www.w3.org/2000/svg">
<g clip-path="url(#clip0_2823_4622)">
<rect width="60" height="30" fill="#00B8F5"/>
<rect y="30" width="60" height="30" fill="#012A72"/>
<rect x="5.39062" y="5.39062" width="49.2188" height="49.2188" rx="24.6094" fill="white"/>
<path d="M47.4627 27.213C47.3025 26.7547 47.0037 26.3577 46.6078 26.0768C46.2118 25.796 45.7384 25.6452 45.2529 25.6455H45.2317C44.916 25.6449 44.6035 25.7084 44.3132 25.8324C44.0229 25.9563 43.7608 26.1381 43.543 26.3665C43.3247 26.1386 43.0626 25.9573 42.7724 25.8334C42.4822 25.7095 42.1699 25.6456 41.8543 25.6455H41.8331C41.2694 25.6465 40.7253 25.8521 40.3018 26.224V26.0453C40.2954 25.9583 40.2563 25.8768 40.1924 25.8173C40.1286 25.7577 40.0446 25.7245 39.9572 25.7242H38.3877C38.2957 25.7242 38.2076 25.7607 38.1426 25.8257C38.0775 25.8908 38.041 25.9789 38.041 26.0709V34.578C38.0432 34.6684 38.0807 34.7545 38.1455 34.8176C38.2103 34.8808 38.2972 34.9162 38.3877 34.9161H39.953C40.0377 34.9174 40.12 34.8876 40.1843 34.8324C40.2486 34.7771 40.2904 34.7003 40.3018 34.6163V28.5103C40.3007 28.4897 40.3007 28.4692 40.3018 28.4486C40.3131 28.31 40.3747 28.1803 40.475 28.0839C40.5752 27.9876 40.7073 27.9312 40.8462 27.9254H41.1355C41.2555 27.9345 41.3702 27.9789 41.4651 28.053C41.533 28.1086 41.5873 28.1788 41.6242 28.2583C41.661 28.3379 41.6793 28.4248 41.6778 28.5124V34.5886C41.6767 34.6354 41.685 34.6819 41.7023 34.7254C41.7196 34.7689 41.7455 34.8084 41.7785 34.8416C41.8115 34.8748 41.8509 34.9009 41.8942 34.9185C41.9376 34.9361 41.9841 34.9447 42.0309 34.9438H43.5962C43.6852 34.9433 43.7707 34.9086 43.8348 34.8468C43.899 34.7851 43.9369 34.701 43.9407 34.612V28.5018C43.938 28.4052 43.96 28.3096 44.0046 28.224C44.0493 28.1384 44.1152 28.0656 44.1959 28.0126C44.282 27.9565 44.3807 27.9229 44.483 27.9148H44.768C44.9172 27.9225 45.0573 27.9882 45.1587 28.0979C45.26 28.2076 45.3144 28.3525 45.3104 28.5018V34.5716C45.3104 34.6636 45.3469 34.7517 45.4119 34.8167C45.4769 34.8818 45.5651 34.9183 45.657 34.9183H47.2245C47.3164 34.9183 47.4046 34.8818 47.4696 34.8167C47.5346 34.7517 47.5711 34.6636 47.5711 34.5716V28.0424C47.5884 27.7615 47.5516 27.4799 47.4627 27.213V27.213Z" fill="#00B7FF"/>
<path d="M36.8556 25.7365H35.9581V24.2839C35.9584 24.2421 35.9504 24.2006 35.9346 24.1619C35.9188 24.1232 35.8955 24.0881 35.866 24.0584C35.8366 24.0288 35.8015 24.0052 35.7629 23.9892C35.7244 23.9731 35.683 23.9648 35.6412 23.9648H35.5838C34.5884 24.2371 34.7883 25.6152 32.9742 25.7322H32.7977C32.773 25.7289 32.7479 25.7289 32.7232 25.7322C32.6465 25.7496 32.578 25.7925 32.5289 25.854C32.4798 25.9154 32.4531 25.9917 32.4531 26.0704V27.6484C32.4531 27.7404 32.4896 27.8286 32.5547 27.8936C32.6197 27.9586 32.7079 27.9951 32.7998 27.9951H33.7462V34.6392C33.7462 34.73 33.7823 34.8171 33.8465 34.8813C33.9107 34.9455 33.9978 34.9816 34.0886 34.9816H35.6391C35.7297 34.981 35.8165 34.9448 35.8806 34.8807C35.9447 34.8166 35.9809 34.7298 35.9815 34.6392V27.9951H36.8598C36.9514 27.9945 37.039 27.9578 37.1036 27.8928C37.1681 27.8279 37.2044 27.74 37.2044 27.6484V26.0831C37.2044 26.0374 37.1953 25.9922 37.1778 25.95C37.1602 25.9078 37.1345 25.8695 37.1021 25.8372C37.0697 25.805 37.0312 25.7795 36.9889 25.7622C36.9466 25.7449 36.9013 25.7362 36.8556 25.7365Z" fill="#00B7FF"/>
<path d="M31.2185 25.7363H29.6511C29.6056 25.7363 29.5607 25.7453 29.5187 25.7628C29.4768 25.7802 29.4387 25.8058 29.4067 25.838C29.3746 25.8702 29.3493 25.9084 29.3321 25.9505C29.3149 25.9925 29.3062 26.0376 29.3065 26.083V29.3221C29.3048 29.4186 29.2653 29.5105 29.1965 29.5781C29.1277 29.6458 29.0351 29.6837 28.9386 29.6836H28.2835C28.2351 29.6839 28.1872 29.6746 28.1424 29.6562C28.0976 29.6378 28.057 29.6107 28.0227 29.5765C27.9885 29.5423 27.9614 29.5016 27.943 29.4568C27.9246 29.4121 27.9153 29.3641 27.9156 29.3157V26.083C27.9156 25.9911 27.8791 25.9029 27.8141 25.8379C27.7491 25.7729 27.6609 25.7363 27.5689 25.7363H25.9951C25.9032 25.7363 25.815 25.7729 25.75 25.8379C25.685 25.9029 25.6485 25.9911 25.6485 26.083V29.6262C25.6355 29.934 25.6866 30.2411 25.7986 30.5281C25.9105 30.8151 26.0808 31.0758 26.2988 31.2935C26.5167 31.5112 26.7775 31.6813 27.0646 31.793C27.3517 31.9047 27.6589 31.9555 27.9666 31.9423C27.9666 31.9423 28.979 31.9423 29.0109 31.9423C29.0988 31.954 29.1794 31.9972 29.2379 32.0639C29.2963 32.1306 29.3285 32.2162 29.3285 32.3049C29.3285 32.3936 29.2963 32.4792 29.2379 32.5459C29.1794 32.6126 29.0988 32.6558 29.0109 32.6675H28.9854L26.6906 32.6867C26.5997 32.6872 26.5127 32.7234 26.4483 32.7874C26.3839 32.8515 26.3471 32.9382 26.346 33.0291V34.5944C26.3458 34.6399 26.3544 34.6851 26.3716 34.7272C26.3888 34.7694 26.4141 34.8078 26.4461 34.8401C26.4781 34.8725 26.5161 34.8983 26.5581 34.916C26.6 34.9337 26.645 34.9429 26.6906 34.9432H29.2427C29.5495 34.9558 29.8555 34.9047 30.1416 34.7931C30.4276 34.6815 30.6874 34.5118 30.9046 34.2948C31.1218 34.0778 31.2917 33.8182 31.4036 33.5322C31.5154 33.2463 31.5668 32.9403 31.5545 32.6335V26.083C31.5546 25.9929 31.5195 25.9063 31.4568 25.8415C31.394 25.7768 31.3086 25.7391 31.2185 25.7363V25.7363Z" fill="#162B75"/>
<path d="M16.1899 25.7372H12.7658C12.7212 25.7369 12.677 25.7455 12.6357 25.7624C12.5945 25.7792 12.5569 25.8041 12.5253 25.8355C12.4937 25.8669 12.4686 25.9043 12.4515 25.9455C12.4343 25.9867 12.4255 26.0308 12.4255 26.0754V34.5825C12.4197 34.6725 12.4498 34.7611 12.5092 34.8289C12.5686 34.8966 12.6525 34.9381 12.7424 34.9441H14.3375C14.383 34.9441 14.4281 34.9351 14.4702 34.9177C14.5122 34.9003 14.5504 34.8747 14.5826 34.8425C14.6148 34.8104 14.6404 34.7721 14.6578 34.7301C14.6752 34.688 14.6842 34.6429 14.6842 34.5974V32.2154H16.1835C16.4664 32.2288 16.7489 32.1829 17.013 32.0807C17.277 31.9786 17.5169 31.8224 17.7171 31.6222C17.9173 31.422 18.0735 31.1821 18.1756 30.918C18.2778 30.654 18.3237 30.3715 18.3103 30.0886V27.8683C18.3239 27.5857 18.2784 27.3035 18.1768 27.0395C18.0752 26.7755 17.9196 26.5356 17.7201 26.3351C17.5206 26.1346 17.2815 25.9779 17.018 25.8749C16.7546 25.772 16.4725 25.7251 16.1899 25.7372V25.7372ZM16.0559 28.6084V29.574C16.0559 29.6712 16.0175 29.7644 15.9489 29.8334C15.8804 29.9023 15.7873 29.9413 15.6901 29.9419H14.6905V28.0044H15.6859C15.7345 28.0038 15.7827 28.0129 15.8277 28.0312C15.8727 28.0495 15.9136 28.0765 15.9481 28.1108C15.9825 28.145 16.0098 28.1858 16.0283 28.2307C16.0468 28.2756 16.0562 28.3237 16.0559 28.3723V28.6084Z" fill="#162B75"/>
<path d="M22.3052 25.7453H20.1295C20.0854 25.7439 20.0414 25.7512 20.0001 25.7668C19.9588 25.7823 19.9209 25.8059 19.8887 25.8361C19.8566 25.8664 19.8306 25.9026 19.8125 25.9429C19.7943 25.9831 19.7842 26.0266 19.7829 26.0707V27.5382C19.7842 27.585 19.7949 27.6311 19.8141 27.6738C19.8334 27.7165 19.8609 27.755 19.8951 27.787C19.9293 27.8191 19.9695 27.844 20.0134 27.8604C20.0573 27.8768 20.104 27.8844 20.1508 27.8827H22.2244C22.3063 27.8933 22.382 27.932 22.4386 27.9921C22.4952 28.0522 22.5292 28.13 22.5349 28.2124V28.425C22.5275 28.5053 22.4925 28.5805 22.4359 28.6379C22.3793 28.6953 22.3046 28.7313 22.2244 28.7398H21.2057C19.8424 28.7398 18.8662 29.6437 18.8662 30.9155V32.7382C18.8662 34.0142 19.6999 34.9032 21.0547 34.9032H23.9003C24.1351 34.9113 24.3637 34.8266 24.5364 34.6673C24.7092 34.5081 24.8123 34.2872 24.8233 34.0525V28.0975C24.8233 26.6492 24.0811 25.7453 22.3052 25.7453ZM22.5541 32.2852V32.5297C22.5551 32.5489 22.5551 32.568 22.5541 32.5872C22.5501 32.6045 22.5451 32.6215 22.5392 32.6382V32.6382C22.5124 32.7087 22.4646 32.7692 22.4022 32.8115C22.3397 32.8537 22.2658 32.8757 22.1904 32.8743H21.5332C21.4861 32.8763 21.4391 32.8689 21.3948 32.8527C21.3506 32.8364 21.31 32.8115 21.2754 32.7795C21.2408 32.7475 21.2129 32.7089 21.1932 32.6661C21.1736 32.6232 21.1627 32.5769 21.161 32.5297V31.4366V31.1899C21.1654 31.0957 21.2067 31.007 21.2759 30.9429C21.3452 30.8788 21.4368 30.8446 21.5311 30.8475H22.1819C22.2765 30.8446 22.3684 30.8791 22.4377 30.9437C22.507 31.0082 22.5481 31.0974 22.5519 31.192L22.5541 32.2852Z" fill="#162B75"/>
</g>
<defs>
<clipPath id="clip0_2823_4622">
<rect width="60" height="60" fill="white"/>
</clipPath>
</defs>
</svg>
